<svg width="24" height="24" viewBox="0 0 24 24" fill="none" xmlns="http://www.w3.org/2000/svg">
<path d="M14.0306 4.71993L20.7806 11.4699C20.8504 11.5396 20.9057 11.6223 20.9434 11.7134C20.9812 11.8044 21.0006 11.902 21.0006 12.0006C21.0006 12.0991 20.9812 12.1967 20.9434 12.2878C20.9057 12.3788 20.8504 12.4615 20.7806 12.5312L14.0306 19.2812C13.8899 19.4219 13.699 19.501 13.5 19.501C13.301 19.501 13.1101 19.4219 12.9694 19.2812C12.8286 19.1405 12.7496 18.9496 12.7496 18.7506C12.7496 18.5515 12.8286 18.3607 12.9694 18.2199L18.4397 12.7506H3.75C3.55109 12.7506 3.36032 12.6715 3.21967 12.5309C3.07902 12.3902 3 12.1995 3 12.0006C3 11.8016 3.07902 11.6109 3.21967 11.4702C3.36032 11.3296 3.55109 11.2506 3.75 11.2506L18.4397 11.2506L12.9694 5.78118C12.8286 5.64045 12.7496 5.44958 12.7496 5.25056C12.7496 5.05154 12.8286 4.86066 12.9694 4.71993C13.1101 4.5792 13.301 4.50014 13.5 4.50014C13.699 4.50014 13.8899 4.5792 14.0306 4.71993Z" fill="#2169FC"/>
</svg>
