<svg width="24" height="24" viewBox="-2 -2 24 24" fill="none" xmlns="http://www.w3.org/2000/svg">
<path d="M11.6925 9.55792C11.7506 9.61596 11.7967 9.68489 11.8282 9.76077C11.8597 9.83664 11.8758 9.91797 11.8758 10.0001C11.8758 10.0822 11.8597 10.1636 11.8282 10.2394C11.7967 10.3153 11.7506 10.3842 11.6925 10.4423L5.44254 16.6923C5.32526 16.8096 5.1662 16.8755 5.00035 16.8755C4.8345 16.8755 4.67544 16.8096 4.55816 16.6923C4.44088 16.575 4.375 16.416 4.375 16.2501C4.375 16.0843 4.44088 15.9252 4.55816 15.8079L10.3668 10.0001L4.55816 4.19229C4.44088 4.07502 4.375 3.91596 4.375 3.7501C4.375 3.58425 4.44088 3.42519 4.55816 3.30792C4.67544 3.19064 4.8345 3.12476 5.00035 3.12476C5.1662 3.12476 5.32526 3.19064 5.44254 3.30792L11.6925 9.55792ZM14.3753 3.1251C14.2096 3.1251 14.0506 3.19095 13.9334 3.30816C13.8162 3.42537 13.7503 3.58434 13.7503 3.7501V16.2501C13.7503 16.4159 13.8162 16.5748 13.9334 16.692C14.0506 16.8093 14.2096 16.8751 14.3753 16.8751C14.5411 16.8751 14.7001 16.8093 14.8173 16.692C14.9345 16.5748 15.0003 16.4159 15.0003 16.2501V3.7501C15.0003 3.58434 14.9345 3.42537 14.8173 3.30816C14.7001 3.19095 14.5411 3.1251 14.3753 3.1251Z" fill="#2169FC"/>
</svg>
