<svg width="32" height="32" viewBox="0 0 32 32" fill="none" xmlns="http://www.w3.org/2000/svg">
<path d="M16.0009 3C13.7565 2.99951 11.5502 3.58011 9.5967 4.68529C7.64324 5.79046 6.00919 7.38256 4.8536 9.30662C3.69801 11.2307 3.06024 13.4212 3.00237 15.6648C2.9445 17.9085 3.46851 20.1289 4.52338 22.11L3.10463 26.3662C2.98712 26.7186 2.97006 27.0968 3.05538 27.4583C3.1407 27.8199 3.32503 28.1505 3.5877 28.4132C3.85037 28.6759 4.181 28.8602 4.54254 28.9455C4.90408 29.0308 5.28224 29.0138 5.63463 28.8962L9.89088 27.4775C11.6343 28.4048 13.5662 28.9228 15.5397 28.992C17.5132 29.0613 19.4765 28.68 21.2807 27.8772C23.0849 27.0743 24.6825 25.871 25.9521 24.3586C27.2218 22.8462 28.1303 21.0644 28.6085 19.1484C29.0868 17.2325 29.1223 15.2328 28.7123 13.301C28.3023 11.3693 27.4577 9.55642 26.2424 7.9999C25.0272 6.44337 23.4733 5.18415 21.6988 4.31782C19.9242 3.45149 17.9756 3.00081 16.0009 3ZM16.0009 27C14.0671 27.0013 12.1673 26.4921 10.4934 25.5238C10.3708 25.4527 10.2346 25.4085 10.0936 25.394C9.9527 25.3796 9.81031 25.3953 9.67588 25.44L5.00088 27L6.55963 22.325C6.60457 22.1907 6.62045 22.0483 6.60622 21.9074C6.592 21.7665 6.548 21.6301 6.47713 21.5075C5.2646 19.4111 4.77777 16.9732 5.09217 14.572C5.40657 12.1707 6.50463 9.94027 8.21599 8.22674C9.92736 6.51321 12.1564 5.41234 14.5573 5.0949C16.9581 4.77747 19.3967 5.26122 21.4945 6.47111C23.5924 7.68099 25.2324 9.54939 26.1601 11.7864C27.0877 14.0235 27.2512 16.5042 26.6252 18.8436C25.9991 21.1831 24.6185 23.2505 22.6976 24.7253C20.7766 26.2 18.4227 26.9996 16.0009 27Z" fill="#2169FC"/>
</svg>
