<svg width="16" height="14" viewBox="0 1 16 14" fill="none" xmlns="http://www.w3.org/2000/svg">
<path d="M6.3507 5.3573L3.40007 8.2498L2.15007 7.0373C2.10325 6.99125 2.04596 6.95395 1.9855 6.92831C1.92504 6.90267 1.86012 6.88919 1.79445 6.88864C1.72878 6.88809 1.66364 6.90048 1.60276 6.9251C1.54188 6.94972 1.48645 6.98609 1.43963 7.03214C1.39278 7.07819 1.35548 7.133 1.32984 7.19346C1.3042 7.25392 1.29072 7.31884 1.29017 7.38451C1.28962 7.45018 1.30201 7.51532 1.32663 7.5762C1.35125 7.63708 1.38762 7.69251 1.43367 7.73933L2.90007 9.1623C2.99359 9.25432 3.11952 9.30582 3.2507 9.30582C3.38188 9.30582 3.50781 9.25432 3.60133 9.1623L7.3507 5.50042C7.39755 5.45438 7.43485 5.39956 7.46049 5.3391C7.48613 5.27864 7.49961 5.21373 7.50016 5.14806C7.50071 5.08239 7.48832 5.01725 7.4637 4.95637C7.43908 4.89549 7.40271 4.84006 7.35666 4.79323C7.31061 4.74641 7.2558 4.70911 7.19534 4.68347C7.13488 4.65783 7.06996 4.64435 7.00429 4.6438C6.93862 4.64325 6.87348 4.65564 6.8126 4.68026C6.75172 4.70488 6.69629 4.74125 6.64945 4.7873L6.3507 5.3573Z" fill="#2169FC"/>
</svg>