<svg width="24" height="24" viewBox="-2 -2 24 24" fill="none" xmlns="http://www.w3.org/2000/svg">
<path d="M18.6854 7.59833C18.6072 7.35812 18.4598 7.1464 18.2615 6.98986C18.0633 6.83331 17.8231 6.73895 17.5713 6.71864L12.9619 6.34677L11.1823 2.04286C11.086 1.80834 10.9222 1.60774 10.7117 1.46656C10.5011 1.32538 10.2533 1.25 9.99983 1.25C9.74633 1.25 9.49856 1.32538 9.28801 1.46656C9.07747 1.60774 8.91366 1.80834 8.81741 2.04286L7.03929 6.34599L2.42757 6.71864C2.17536 6.73997 1.93506 6.83526 1.73677 6.99255C1.53847 7.14985 1.39101 7.36217 1.31285 7.6029C1.23469 7.84364 1.22931 8.10209 1.29738 8.34587C1.36546 8.58965 1.50396 8.80792 1.69554 8.97333L5.21116 12.0069L4.14007 16.5429C4.08016 16.7893 4.09483 17.048 4.18221 17.286C4.26958 17.5241 4.42573 17.7309 4.63082 17.88C4.83591 18.0292 5.0807 18.1141 5.33411 18.1239C5.58752 18.1337 5.83814 18.0679 6.05413 17.935L9.99944 15.5069L13.9471 17.935C14.1632 18.0664 14.4133 18.1308 14.6659 18.1203C14.9185 18.1098 15.1624 18.0247 15.3668 17.8759C15.5712 17.727 15.727 17.521 15.8145 17.2838C15.9021 17.0466 15.9175 16.7888 15.8588 16.5429L14.7838 12.0061L18.2994 8.97255C18.4926 8.80741 18.6323 8.58867 18.701 8.34403C18.7697 8.09939 18.7643 7.83987 18.6854 7.59833Z" fill="#034EE7"/>
</svg>