<svg width="24" height="24" viewBox="0 0 24 24" fill="none" xmlns="http://www.w3.org/2000/svg">
<path d="M20.9775 14.0714C21.0011 14.167 21.0055 14.2664 20.9907 14.3638C20.9758 14.4611 20.9419 14.5546 20.8909 14.6389C20.8398 14.7232 20.7727 14.7966 20.6933 14.8549C20.6139 14.9132 20.5238 14.9554 20.4282 14.9789L18.1182 15.5414L18.7238 17.8017C18.7493 17.8968 18.7558 17.9961 18.743 18.0938C18.7301 18.1915 18.6981 18.2857 18.6488 18.371C18.5996 18.4563 18.534 18.5311 18.4558 18.591C18.3776 18.651 18.2884 18.695 18.1932 18.7204C18.13 18.7386 18.0648 18.7487 17.9991 18.7504C17.8341 18.7503 17.6738 18.6957 17.5429 18.5952C17.4121 18.4947 17.3181 18.3539 17.2754 18.1945L16.5516 15.4945L12.7491 13.2998V17.6901L14.7797 19.7198C14.8494 19.7895 14.9047 19.8722 14.9424 19.9632C14.9801 20.0543 14.9995 20.1519 14.9995 20.2504C14.9995 20.349 14.9801 20.4465 14.9424 20.5376C14.9047 20.6286 14.8494 20.7114 14.7797 20.781C14.7101 20.8507 14.6273 20.906 14.5363 20.9437C14.4452 20.9814 14.3477 21.0008 14.2491 21.0008C14.1506 21.0008 14.053 20.9814 13.9619 20.9437C13.8709 20.906 13.7882 20.8507 13.7185 20.781L11.9991 19.0607L10.2797 20.781C10.2101 20.8507 10.1273 20.906 10.0363 20.9437C9.94524 20.9814 9.84766 21.0008 9.74911 21.0008C9.65056 21.0008 9.55298 20.9814 9.46194 20.9437C9.37089 20.906 9.28817 20.8507 9.21848 20.781C9.1488 20.7114 9.09353 20.6286 9.05581 20.5376C9.0181 20.4465 8.99869 20.349 8.99869 20.2504C8.99869 20.1519 9.0181 20.0543 9.05581 19.9632C9.09353 19.8722 9.1488 19.7895 9.21848 19.7198L11.2491 17.6901V13.2998L7.44755 15.4945L6.7238 18.1945C6.68107 18.354 6.58687 18.495 6.45584 18.5955C6.32481 18.696 6.16426 18.7505 5.99911 18.7504C5.9333 18.7503 5.86777 18.7418 5.80411 18.7251C5.70893 18.6996 5.61969 18.6557 5.54151 18.5957C5.46332 18.5358 5.39772 18.461 5.34844 18.3757C5.29916 18.2904 5.26718 18.1962 5.25432 18.0985C5.24146 18.0008 5.24797 17.9015 5.27348 17.8064L5.87911 15.546L3.56911 14.9835C3.37592 14.9361 3.2095 14.8138 3.10647 14.6436C3.00344 14.4734 2.97224 14.2692 3.01973 14.076C3.06723 13.8828 3.18952 13.7164 3.35971 13.6134C3.52989 13.5104 3.73404 13.4792 3.92723 13.5267L6.68817 14.2045L10.4991 12.0004L6.68911 9.80104L3.92817 10.4789C3.86959 10.4934 3.80946 10.5006 3.74911 10.5004C3.56572 10.5005 3.38865 10.4335 3.25136 10.3119C3.11407 10.1903 3.02608 10.0226 3.00403 9.8406C2.98198 9.65854 3.0274 9.47472 3.13169 9.32388C3.23599 9.17304 3.39193 9.06564 3.57005 9.02198L5.88005 8.45948L5.27442 6.19448C5.22295 6.00228 5.24994 5.79751 5.34946 5.62521C5.44897 5.45291 5.61285 5.3272 5.80505 5.27573C5.99725 5.22426 6.20202 5.25125 6.37432 5.35076C6.54662 5.45027 6.67233 5.61416 6.7238 5.80635L7.44755 8.50635L11.2491 10.701V6.31073L9.21848 4.28104C9.07775 4.14031 8.99869 3.94944 8.99869 3.75042C8.99869 3.65187 9.0181 3.55429 9.05581 3.46324C9.09353 3.3722 9.1488 3.28947 9.21848 3.21979C9.28817 3.15011 9.37089 3.09483 9.46194 3.05712C9.55298 3.01941 9.65056 3 9.74911 3C9.94813 3 10.139 3.07906 10.2797 3.21979L11.9991 4.9401L13.7185 3.21979C13.8592 3.07906 14.0501 3 14.2491 3C14.4481 3 14.639 3.07906 14.7797 3.21979C14.9205 3.36052 14.9995 3.55139 14.9995 3.75042C14.9995 3.94944 14.9205 4.14031 14.7797 4.28104L12.7491 6.31073V10.701L16.5507 8.50635L17.2744 5.80635C17.3259 5.61416 17.4516 5.45027 17.6239 5.35076C17.7962 5.25125 18.001 5.22426 18.1932 5.27573C18.3854 5.3272 18.5493 5.45291 18.6488 5.62521C18.7483 5.79751 18.7753 6.00228 18.7238 6.19448L18.1182 8.45479L20.4282 9.01729C20.6113 9.05639 20.7731 9.16255 20.8819 9.3149C20.9907 9.46726 21.0386 9.65479 21.0161 9.84065C20.9937 10.0265 20.9025 10.1973 20.7606 10.3193C20.6187 10.4414 20.4362 10.506 20.2491 10.5004C20.1888 10.5006 20.1286 10.4934 20.07 10.4789L17.3091 9.80104L13.4991 12.0004L17.3091 14.1998L20.07 13.522C20.1657 13.4984 20.2651 13.494 20.3624 13.5089C20.4598 13.5237 20.5533 13.5577 20.6376 13.6087C20.7219 13.6597 20.7953 13.7268 20.8536 13.8062C20.9119 13.8856 20.954 13.9757 20.9775 14.0714Z" fill="#2169FC"/>
</svg>
