<svg width="24" height="24" viewBox="0 0 24 24" fill="none" xmlns="http://www.w3.org/2000/svg">
<path d="M22.1991 17.6334L14.0006 3.39563C13.7957 3.04681 13.5033 2.75758 13.1522 2.55662C12.8011 2.35566 12.4036 2.24994 11.9991 2.24994C11.5945 2.24994 11.197 2.35566 10.8459 2.55662C10.4948 2.75758 10.2024 3.04681 9.99749 3.39563L1.79905 17.6334C1.60193 17.9708 1.49805 18.3546 1.49805 18.7453C1.49805 19.1361 1.60193 19.5198 1.79905 19.8572C2.0013 20.2081 2.29327 20.4989 2.64502 20.6997C2.99676 20.9006 3.3956 21.0042 3.80061 21H20.1975C20.6022 21.0039 21.0006 20.9001 21.352 20.6993C21.7034 20.4985 21.9951 20.2078 22.1972 19.8572C22.3946 19.52 22.4988 19.1363 22.4991 18.7456C22.4995 18.3548 22.3959 17.971 22.1991 17.6334ZM20.8987 19.1063C20.8273 19.2282 20.7247 19.3289 20.6014 19.3981C20.4782 19.4673 20.3388 19.5024 20.1975 19.5H3.80061C3.65931 19.5024 3.5199 19.4673 3.39667 19.3981C3.27345 19.3289 3.17084 19.2282 3.09936 19.1063C3.03463 18.9966 3.00048 18.8717 3.00048 18.7444C3.00048 18.6171 3.03463 18.4921 3.09936 18.3825L11.2978 4.14469C11.3707 4.02335 11.4738 3.92295 11.597 3.85324C11.7202 3.78354 11.8594 3.7469 12.0009 3.7469C12.1425 3.7469 12.2816 3.78354 12.4049 3.85324C12.5281 3.92295 12.6311 4.02335 12.7041 4.14469L20.9025 18.3825C20.9667 18.4924 21.0002 18.6176 20.9995 18.7449C20.9988 18.8722 20.964 18.997 20.8987 19.1063ZM11.2491 13.5V9.75C11.2491 9.55109 11.3281 9.36032 11.4687 9.21967C11.6094 9.07902 11.8001 9 11.9991 9C12.198 9 12.3887 9.07902 12.5294 9.21967C12.67 9.36032 12.7491 9.55109 12.7491 9.75V13.5C12.7491 13.6989 12.67 13.8897 12.5294 14.0303C12.3887 14.171 12.198 14.25 11.9991 14.25C11.8001 14.25 11.6094 14.171 11.4687 14.0303C11.3281 13.8897 11.2491 13.6989 11.2491 13.5ZM13.1241 16.875C13.1241 17.0975 13.0581 17.315 12.9345 17.5C12.8108 17.685 12.6351 17.8292 12.4296 17.9144C12.224 17.9995 11.9978 18.0218 11.7796 17.9784C11.5613 17.935 11.3609 17.8278 11.2036 17.6705C11.0462 17.5132 10.9391 17.3127 10.8957 17.0945C10.8523 16.8762 10.8745 16.65 10.9597 16.4445C11.0448 16.2389 11.189 16.0632 11.374 15.9396C11.559 15.816 11.7765 15.75 11.9991 15.75C12.2974 15.75 12.5836 15.8685 12.7945 16.0795C13.0055 16.2905 13.1241 16.5766 13.1241 16.875Z" fill="#FFA000"/>
</svg>
