<svg width="24" height="24" viewBox="0 0 24 24" fill="none" xmlns="http://www.w3.org/2000/svg">
<path d="M22.8103 10.9399L21.3103 9.43991C21.0559 9.1858 20.7187 9.03153 20.3601 9.0052C20.0015 8.97887 19.6453 9.08224 19.3565 9.29647L14.7028 4.64272C14.9171 4.35405 15.0207 3.99798 14.9945 3.63937C14.9684 3.28077 14.8143 2.94349 14.5603 2.68897L13.0603 1.18897C12.921 1.04965 12.7556 0.939129 12.5736 0.863725C12.3916 0.788322 12.1965 0.749512 11.9995 0.749512C11.8025 0.749512 11.6074 0.788322 11.4254 0.863725C11.2434 0.939129 11.078 1.04965 10.9387 1.18897L4.93873 7.18897C4.79941 7.32827 4.68889 7.49364 4.61349 7.67565C4.53808 7.85766 4.49927 8.05274 4.49927 8.24975C4.49927 8.44677 4.53808 8.64185 4.61349 8.82386C4.68889 9.00587 4.79941 9.17124 4.93873 9.31054L6.43873 10.8105C6.6932 11.0643 7.03029 11.2182 7.38868 11.2444C7.74707 11.2705 8.10294 11.1671 8.39154 10.953L9.06373 11.6252L2.93436 17.7546C2.52715 18.2 2.30741 18.7852 2.3209 19.3885C2.33439 19.9919 2.58007 20.5667 3.00678 20.9934C3.43349 21.4201 4.00835 21.6658 4.61167 21.6793C5.21498 21.6928 5.80025 21.4731 6.24561 21.0658L12.374 14.9365L13.0462 15.6077C12.8319 15.8964 12.7284 16.2525 12.7545 16.6111C12.7807 16.9697 12.9348 17.307 13.1887 17.5615L14.6887 19.0615C14.828 19.2008 14.9934 19.3113 15.1754 19.3867C15.3574 19.4621 15.5525 19.5009 15.7495 19.5009C15.9465 19.5009 16.1416 19.4621 16.3236 19.3867C16.5056 19.3113 16.671 19.2008 16.8103 19.0615L22.8103 13.0615C22.9496 12.9222 23.0601 12.7568 23.1355 12.5748C23.2109 12.3928 23.2498 12.1977 23.2498 12.0007C23.2498 11.8037 23.2109 11.6086 23.1355 11.4266C23.0601 11.2446 22.9496 11.0792 22.8103 10.9399ZM7.49904 9.75022L5.99905 8.25022L11.999 2.25022L13.499 3.75022L7.49904 9.75022ZM5.1853 20.0046C5.02721 20.1617 4.81336 20.25 4.59045 20.25C4.36754 20.25 4.15369 20.1617 3.99561 20.0046C3.83874 19.8465 3.75072 19.6329 3.75072 19.4102C3.75072 19.1875 3.83874 18.9739 3.99561 18.8158L10.124 12.6865L11.3137 13.8752L5.1853 20.0046ZM9.46779 9.90585L13.6547 5.71897L18.2803 10.3446L14.0944 14.5315L9.46779 9.90585ZM15.749 18.0002L14.249 16.5002L14.624 16.1252L19.874 10.8752L20.249 10.5002L21.749 12.0002L15.749 18.0002Z" fill="#2169FC"/>
</svg>
