<svg width="48" height="48" viewBox="0 0 48 48" fill="none" xmlns="http://www.w3.org/2000/svg">
<path d="M38.5617 11.5568L11.5617 38.5568C11.2802 38.8383 10.8985 38.9964 10.5004 38.9964C10.1024 38.9964 9.72065 38.8383 9.43919 38.5568C9.15773 38.2754 8.99961 37.8936 8.99961 37.4956C8.99961 37.0975 9.15773 36.7158 9.43919 36.4343L36.4392 9.43435C36.7204 9.15288 37.1019 8.99466 37.4998 8.99449C37.8976 8.99431 38.2793 9.1522 38.5608 9.43341C38.8422 9.71462 39.0004 10.0961 39.0006 10.494C39.0008 10.8919 38.8429 11.2735 38.5617 11.555V11.5568ZM9.47669 19.0193C8.21086 17.7533 7.49982 16.0362 7.5 14.2459C7.50018 12.4555 8.21155 10.7386 9.47763 9.47278C10.7437 8.20695 12.4608 7.49592 14.2511 7.49609C16.0414 7.49627 17.7584 8.20764 19.0242 9.47372C20.29 10.7398 21.0011 12.4569 21.0009 14.2472C21.0007 16.0375 20.2893 17.7545 19.0233 19.0203C17.7572 20.2861 16.0401 20.9971 14.2498 20.997C12.4594 20.9968 10.7425 20.2854 9.47669 19.0193ZM10.5004 14.2493C10.5009 14.8659 10.6534 15.4729 10.9445 16.0165C11.2355 16.5601 11.6561 17.0235 12.169 17.3657C12.6819 17.708 13.2713 17.9184 13.8849 17.9785C14.4986 18.0386 15.1176 17.9465 15.6871 17.7103C16.2567 17.474 16.7592 17.101 17.1502 16.6242C17.5411 16.1475 17.8085 15.5816 17.9286 14.9768C18.0487 14.3721 18.0178 13.747 17.8387 13.157C17.6596 12.567 17.3377 12.0303 16.9017 11.5943C16.377 11.0698 15.7086 10.7127 14.9809 10.5682C14.2532 10.4237 13.499 10.4983 12.8138 10.7825C12.1285 11.0667 11.5429 11.5479 11.1311 12.165C10.7193 12.7821 10.4999 13.5075 10.5004 14.2493ZM40.5004 33.7493C40.5001 35.311 39.9583 36.8242 38.9673 38.0311C37.9764 39.238 36.5976 40.064 35.0659 40.3684C33.5342 40.6727 31.9444 40.4365 30.5673 39.7001C29.1902 38.9637 28.1111 37.7725 27.5137 36.3297C26.9164 34.8868 26.8379 33.2814 27.2915 31.7871C27.7451 30.2928 28.7027 29.0021 30.0014 28.1347C31.3 27.2673 32.8591 26.8771 34.4132 27.0304C35.9673 27.1837 37.4201 27.8712 38.5242 28.9756C39.1529 29.6011 39.6514 30.345 39.9906 31.1645C40.3298 31.9839 40.5031 32.8625 40.5004 33.7493ZM37.5004 33.7493C37.5006 32.8818 37.2 32.0409 36.6497 31.3702C36.0995 30.6994 35.3336 30.2402 34.4828 30.0707C33.6319 29.9013 32.7486 30.0322 31.9833 30.441C31.2181 30.8498 30.6183 31.5114 30.2862 32.3129C29.954 33.1143 29.91 34.0062 30.1617 34.8365C30.4134 35.6668 30.9452 36.3841 31.6665 36.8662C32.3878 37.3483 33.254 37.5654 34.1174 37.4805C34.9808 37.3956 35.7881 37.014 36.4017 36.4006C36.751 36.0533 37.028 35.6401 37.2166 35.185C37.4052 34.7299 37.5017 34.242 37.5004 33.7493Z" fill="#2169FC"/>
</svg>
