<svg width="48" height="48" viewBox="0 0 48 48" fill="none" xmlns="http://www.w3.org/2000/svg">
<rect width="48" height="48" rx="5" fill="url(#paint0_linear_61393_47060)"/>
<g filter="url(#filter0_d_61393_47060)">
<path d="M22.3172 10.6199C23.1044 9.39439 24.8956 9.39439 25.6828 10.6199L29.0335 15.8367C29.3044 16.2583 29.7236 16.563 30.2084 16.6902L36.2052 18.2649C37.614 18.6348 38.1675 20.3384 37.2452 21.4657L33.3192 26.2645C33.0019 26.6524 32.8418 27.1453 32.8705 27.6456L33.226 33.8356C33.3095 35.2898 31.8604 36.3426 30.5032 35.8138L24.7261 33.5629C24.2591 33.381 23.7409 33.381 23.2739 33.5629L17.4968 35.8138C16.1396 36.3426 14.6905 35.2898 14.774 33.8356L15.1295 27.6456C15.1582 27.1453 14.9981 26.6524 14.6808 26.2645L10.7548 21.4657C9.83248 20.3384 10.386 18.6348 11.7948 18.2649L17.7916 16.6902C18.2764 16.563 18.6956 16.2583 18.9665 15.8367L22.3172 10.6199Z" fill="#FFC911"/>
</g>
<defs>
<filter id="filter0_d_61393_47060" x="10.3008" y="4.70068" width="57.3984" height="56.252" filterUnits="userSpaceOnUse" color-interpolation-filters="sRGB">
<feFlood flood-opacity="0" result="BackgroundImageFix"/>
<feColorMatrix in="SourceAlpha" type="matrix" values="0 0 0 0 0 0 0 0 0 0 0 0 0 0 0 0 0 0 127 0" result="hardAlpha"/>
<feOffset dx="15" dy="10"/>
<feGaussianBlur stdDeviation="7.5"/>
<feComposite in2="hardAlpha" operator="out"/>
<feColorMatrix type="matrix" values="0 0 0 0 0 0 0 0 0 0 0 0 0 0 0 0 0 0 0.25 0"/>
<feBlend mode="normal" in2="BackgroundImageFix" result="effect1_dropShadow_61393_47060"/>
<feBlend mode="normal" in="SourceGraphic" in2="effect1_dropShadow_61393_47060" result="shape"/>
</filter>
<linearGradient id="paint0_linear_61393_47060" x1="24" y1="0" x2="24" y2="48" gradientUnits="userSpaceOnUse">
<stop stop-color="#BA4CF3"/>
<stop offset="1" stop-color="#9327E7"/>
</linearGradient>
</defs>
</svg>
