<svg width="28" height="28" viewBox="0 0 28 28" fill="none" xmlns="http://www.w3.org/2000/svg">
<path d="M14 8.7503C12.9616 8.7503 11.9466 9.05821 11.0832 9.63509C10.2199 10.212 9.54696 11.0319 9.1496 11.9912C8.75224 12.9505 8.64827 14.0061 8.85084 15.0245C9.05341 16.0429 9.55343 16.9784 10.2877 17.7126C11.0219 18.4468 11.9573 18.9469 12.9757 19.1494C13.9941 19.352 15.0497 19.248 16.0091 18.8507C16.9684 18.4533 17.7883 17.7804 18.3652 16.917C18.9421 16.0537 19.25 15.0387 19.25 14.0003C19.2485 12.6084 18.6949 11.2738 17.7107 10.2896C16.7264 9.30534 15.3919 8.75175 14 8.7503ZM14 17.5003C13.3077 17.5003 12.631 17.295 12.0555 16.9104C11.4799 16.5259 11.0313 15.9792 10.7664 15.3397C10.5015 14.7002 10.4322 13.9964 10.5672 13.3175C10.7023 12.6386 11.0356 12.0149 11.5251 11.5254C12.0146 11.0359 12.6382 10.7026 13.3171 10.5676C13.9961 10.4325 14.6998 10.5018 15.3394 10.7667C15.9789 11.0316 16.5255 11.4802 16.9101 12.0558C17.2947 12.6314 17.5 13.3081 17.5 14.0003C17.5 14.9286 17.1312 15.8188 16.4748 16.4752C15.8185 17.1316 14.9282 17.5003 14 17.5003ZM26.0247 11.7264C26.0003 11.6032 25.9497 11.4867 25.8763 11.3847C25.8028 11.2828 25.7083 11.1979 25.5992 11.1358L22.3365 9.2764L22.3234 5.59921C22.323 5.47257 22.2951 5.34752 22.2417 5.23271C22.1882 5.1179 22.1105 5.01605 22.0139 4.93421C20.8304 3.9331 19.4675 3.16591 17.9976 2.67343C17.8819 2.63425 17.7592 2.61975 17.6375 2.63087C17.5158 2.64198 17.3978 2.67846 17.2911 2.73796L14 4.57765L10.7056 2.73468C10.5988 2.67485 10.4806 2.63809 10.3587 2.62679C10.2368 2.61548 10.1139 2.62988 9.99793 2.66905C8.52919 3.16513 7.16785 3.93525 5.98606 4.93859C5.88955 5.02031 5.81191 5.12198 5.75847 5.23659C5.70504 5.3512 5.67708 5.47604 5.67653 5.60249L5.66012 9.28296L2.39746 11.1423C2.28831 11.2045 2.19381 11.2894 2.1204 11.3913C2.04698 11.4932 1.99637 11.6097 1.972 11.733C1.6734 13.2335 1.6734 14.7781 1.972 16.2786C1.99637 16.4018 2.04698 16.5183 2.1204 16.6202C2.19381 16.7222 2.28831 16.8071 2.39746 16.8692L5.66012 18.7286L5.67325 22.4058C5.67364 22.5324 5.70152 22.6575 5.75496 22.7723C5.80841 22.8871 5.88613 22.9889 5.98278 23.0708C7.16629 24.0719 8.5292 24.8391 9.99903 25.3316C10.1148 25.3707 10.2374 25.3852 10.3591 25.3741C10.4808 25.363 10.5989 25.3265 10.7056 25.267L14 23.423L17.2943 25.2659C17.4247 25.3386 17.5717 25.3762 17.7209 25.3753C17.8165 25.3753 17.9114 25.3598 18.002 25.3294C19.4706 24.8339 20.8319 24.0646 22.0139 23.062C22.1104 22.9803 22.188 22.8786 22.2415 22.764C22.2949 22.6494 22.3228 22.5246 22.3234 22.3981L22.3398 18.7176L25.6025 16.8583C25.7116 16.7961 25.8061 16.7112 25.8795 16.6093C25.9529 16.5074 26.0036 16.3909 26.0279 16.2676C26.3249 14.7684 26.3238 13.2253 26.0247 11.7264ZM24.384 15.5447L21.2592 17.322C21.1223 17.3999 21.0089 17.5132 20.9311 17.6501C20.8676 17.7595 20.8009 17.8755 20.7331 17.9848C20.6463 18.1228 20.6 18.2823 20.5997 18.4453L20.5832 21.9726C19.7433 22.6322 18.8076 23.1597 17.8084 23.5367L14.6562 21.7801C14.5254 21.7077 14.3781 21.6701 14.2286 21.6708H14.2078C14.0754 21.6708 13.942 21.6708 13.8097 21.6708C13.6531 21.6669 13.4984 21.7046 13.3612 21.7801L10.2068 23.5411C9.20552 23.1669 8.26721 22.6421 7.42434 21.9847L7.41231 18.4628C7.41177 18.2995 7.36555 18.1396 7.27887 18.0012C7.21106 17.8919 7.14434 17.7825 7.082 17.6666C7.00469 17.5275 6.89134 17.4119 6.75387 17.3319L3.62575 15.5501C3.46387 14.5262 3.46387 13.4832 3.62575 12.4592L6.74512 10.6786C6.88203 10.6007 6.99539 10.4874 7.07325 10.3505C7.13668 10.2411 7.2034 10.1251 7.27121 10.0158C7.35802 9.87784 7.40426 9.71827 7.40465 9.5553L7.42106 6.02796C8.26098 5.36837 9.19672 4.84094 10.1959 4.4639L13.3437 6.22046C13.4807 6.2964 13.6356 6.33417 13.7922 6.32984C13.9245 6.32984 14.0579 6.32984 14.1903 6.32984C14.3468 6.33375 14.5016 6.296 14.6387 6.22046L17.7931 4.45952C18.7944 4.83367 19.7327 5.35852 20.5756 6.01593L20.5876 9.5378C20.5882 9.7011 20.6344 9.86098 20.7211 9.99937C20.7889 10.1087 20.8556 10.2181 20.9179 10.3341C20.9952 10.4731 21.1086 10.5887 21.2461 10.6687L24.3742 12.4505C24.5382 13.4752 24.5401 14.5194 24.3797 15.5447H24.384Z" fill="#2169FC"/>
</svg>
