<svg width="24" height="24" viewBox="0 0 24 24" fill="none" xmlns="http://www.w3.org/2000/svg">
<path d="M15.97 12.969C16.0396 12.8992 16.1223 12.8439 16.2134 12.8062C16.3044 12.7684 16.402 12.749 16.5006 12.749C16.5992 12.749 16.6967 12.7684 16.7878 12.8062C16.8788 12.8439 16.9616 12.8992 17.0312 12.969L20.0312 15.969C20.1009 16.0386 20.1563 16.1213 20.194 16.2124C20.2318 16.3034 20.2512 16.401 20.2512 16.4996C20.2512 16.5981 20.2318 16.6957 20.194 16.7868C20.1563 16.8778 20.1009 16.9606 20.0312 17.0302L17.0312 20.0302C16.9615 20.0999 16.8788 20.1552 16.7878 20.1929C16.6967 20.2306 16.5991 20.25 16.5006 20.25C16.402 20.25 16.3045 20.2306 16.2134 20.1929C16.1224 20.1552 16.0396 20.0999 15.97 20.0302C15.8292 19.8895 15.7502 19.6986 15.7502 19.4996C15.7502 19.401 15.7696 19.3035 15.8073 19.2124C15.845 19.1214 15.9003 19.0386 15.97 18.969L17.6903 17.2496H4.50059C4.30168 17.2496 4.11091 17.1706 3.97026 17.0299C3.82961 16.8893 3.75059 16.6985 3.75059 16.4996C3.75059 16.3007 3.82961 16.1099 3.97026 15.9693C4.11091 15.8286 4.30168 15.7496 4.50059 15.7496H17.6903L15.97 14.0302C15.9002 13.9606 15.8449 13.8778 15.8072 13.7868C15.7694 13.6957 15.75 13.5981 15.75 13.4996C15.75 13.401 15.7694 13.3034 15.8072 13.2124C15.8449 13.1213 15.9002 13.0386 15.97 12.969ZM6.96996 3.96896L3.96997 6.96896C3.90023 7.03861 3.84491 7.12133 3.80717 7.21238C3.76943 7.30343 3.75 7.40102 3.75 7.49958C3.75 7.59814 3.76943 7.69574 3.80717 7.78679C3.84491 7.87784 3.90023 7.96055 3.96997 8.03021L6.96996 11.0302C7.1107 11.1709 7.30157 11.25 7.50059 11.25C7.69961 11.25 7.89048 11.1709 8.03122 11.0302C8.17195 10.8895 8.25101 10.6986 8.25101 10.4996C8.25101 10.3006 8.17195 10.1097 8.03122 9.96896L6.3109 8.24958L19.5006 8.24958C19.6995 8.24958 19.8903 8.17057 20.0309 8.02991C20.1716 7.88926 20.2506 7.69849 20.2506 7.49958C20.2506 7.30067 20.1716 7.1099 20.0309 6.96925C19.8903 6.8286 19.6995 6.74958 19.5006 6.74958L6.3109 6.74958L8.03122 5.03021C8.17195 4.88948 8.25101 4.69861 8.25101 4.49958C8.25101 4.30056 8.17195 4.10969 8.03122 3.96896C7.89048 3.82823 7.69961 3.74916 7.50059 3.74916C7.30157 3.74916 7.1107 3.82823 6.96996 3.96896Z" fill="#2169FC"/>
</svg>
