<svg width="36" height="36" viewBox="0 0 36 36" fill="none" xmlns="http://www.w3.org/2000/svg">
<path d="M18 36C27.9411 36 36 27.9411 36 18C36 8.05887 27.9411 0 18 0C8.05887 0 0 8.05887 0 18C0 27.9411 8.05887 36 18 36Z" fill="#2169FC"/>
<path d="M24.5974 21.4909C24.4607 21.4306 24.3127 21.4 24.1631 21.4011C24.0338 21.4012 23.9054 21.4229 23.7833 21.4652C23.5572 21.5633 23.3558 21.7096 23.1935 21.8937C23.1265 21.9635 23.055 22.0291 22.9796 22.09C21.9426 22.8598 20.9847 23.2164 19.8246 23.2626V12.9467C20.8525 13.0827 21.5952 13.4894 22.0282 14.1591C22.1207 14.3148 22.2001 14.4779 22.2654 14.6466C22.3638 14.9176 22.5023 15.1727 22.6763 15.4035C22.6958 15.4279 22.7735 15.5125 22.7878 15.5318C22.9749 15.7089 23.2249 15.8062 23.4839 15.8025C23.6244 15.805 23.7638 15.7772 23.8923 15.7209C24.0208 15.6646 24.1353 15.5812 24.2279 15.4766C24.4242 15.2138 24.523 14.8922 24.5079 14.5658C24.5079 14.3861 24.5222 14.2681 24.5287 14.1809C24.5449 14.0101 24.5423 13.838 24.5209 13.6677C24.4107 12.7325 24.1463 12.5529 23.3244 12.1282L23.0652 11.9935C21.8117 11.3277 21.0754 11.175 19.8323 11.0121C19.9555 9.11212 20.334 8.44629 20.7332 8.02036C20.8578 7.89444 21.0073 7.79528 21.1724 7.72906C21.3374 7.66284 21.5144 7.63099 21.6925 7.63549C21.7557 7.63546 21.8189 7.63932 21.8817 7.64704C21.4928 8.31415 21.5927 9.01846 22.141 9.47903C22.4561 9.71517 22.8439 9.83659 23.2389 9.82285C23.59 9.83654 23.936 9.73606 24.224 9.53676C24.9305 8.97869 24.9305 7.98444 24.5248 7.38532C24.0517 6.71158 23.3327 6.24607 22.5195 6.08702C21.7728 5.93116 20.9969 5.98543 20.2798 6.2437C19.5627 6.50197 18.9331 6.95389 18.4622 7.54825L18.4117 7.60983C18.0733 8.01266 17.1997 9.0531 17.1245 11.0031C13.132 11.8575 10.9375 14.2899 10.9375 17.8795C10.9375 20.0733 11.749 23.9092 17.1258 25.237C17.1258 25.3101 17.1258 25.3832 17.1258 25.4538C17.1012 26.2094 17.0843 26.7559 16.6423 27.5924C16.5228 27.7926 16.3519 27.9581 16.1471 28.0721C15.9422 28.1861 15.7106 28.2445 15.4757 28.2415C15.3886 28.2423 15.3018 28.2341 15.2164 28.2172C15.3182 28.0016 15.365 27.7646 15.3525 27.527C15.3465 27.3255 15.2936 27.1281 15.1981 26.9502C15.1026 26.7722 14.9669 26.6184 14.8016 26.5006C14.7909 26.4931 14.7796 26.4862 14.7679 26.4801C14.4921 26.3204 14.18 26.2321 13.8605 26.2235C13.4789 26.2292 13.1136 26.378 12.8386 26.64C12.5635 26.9019 12.3993 27.2575 12.3789 27.6347C12.3733 27.8852 12.4179 28.1342 12.5103 28.3674C12.6026 28.6006 12.7408 28.8134 12.9169 28.9933C13.197 29.318 13.5469 29.5768 13.9408 29.7508C14.3348 29.9248 14.7631 30.0096 15.1944 29.9991C15.5429 29.9953 15.8902 29.958 16.2314 29.8875C17.7259 29.5232 18.8161 28.5854 19.472 27.0998C19.6975 26.5866 19.7753 25.7206 19.7999 25.2601C20.6176 25.1751 21.4167 24.9639 22.1682 24.634C23.7444 23.9169 24.2422 23.4114 24.6311 23.006L24.7335 22.9008C25.1081 22.5159 25.0899 22.1683 25.0083 21.9361C24.9361 21.7398 24.7884 21.5797 24.5974 21.4909ZM17.1336 18.1322C17.1336 19.8257 17.1336 21.5127 17.1336 23.1741C15.4484 22.6878 14.2961 20.7224 14.2961 18.222C14.2961 16.1758 14.8029 13.6664 17.1478 12.9993C17.1374 14.703 17.1349 16.4208 17.1336 18.1322Z" fill="white"/>
</svg>
