<svg width="122" height="36" viewBox="0 0 122 36" fill="none" xmlns="http://www.w3.org/2000/svg">
<rect x="0.45" y="0.45" width="120.6" height="35.1" rx="6.75" fill="black"/>
<rect x="0.45" y="0.45" width="120.6" height="35.1" rx="6.75" stroke="#A6A6A6" stroke-width="0.9"/>
<path d="M22.2902 18.2711C22.2999 17.5199 22.4994 16.7833 22.8703 16.13C23.2411 15.4766 23.7712 14.9277 24.4111 14.5342C24.0046 13.9536 23.4682 13.4757 22.8447 13.1386C22.2211 12.8015 21.5276 12.6145 20.8191 12.5923C19.3078 12.4337 17.8426 13.4967 17.0725 13.4967C16.2874 13.4967 15.1017 12.6081 13.8248 12.6343C12.9989 12.661 12.194 12.9012 11.4885 13.3314C10.783 13.7617 10.201 14.3674 9.79921 15.0894C8.05861 18.103 9.35694 22.5319 11.0243 24.9679C11.8585 26.1607 12.8335 27.4931 14.1092 27.4459C15.3575 27.3941 15.8237 26.6498 17.3306 26.6498C18.8235 26.6498 19.2609 27.4459 20.5625 27.4158C21.9021 27.3941 22.746 26.2177 23.551 25.0136C24.1504 24.1637 24.6116 23.2243 24.9176 22.2303C24.1393 21.9012 23.4752 21.3502 23.008 20.6461C22.5408 19.9421 22.2911 19.1161 22.2902 18.2711Z" fill="white"/>
<path d="M19.8321 10.9902C20.5624 10.1134 20.9223 8.98644 20.8351 7.84863C19.7193 7.96583 18.6885 8.49913 17.9483 9.34228C17.5864 9.75418 17.3092 10.2334 17.1326 10.7525C16.9559 11.2716 16.8834 11.8204 16.919 12.3675C17.4771 12.3733 18.0292 12.2523 18.5338 12.0137C19.0384 11.7752 19.4823 11.4252 19.8321 10.9902Z" fill="white"/>
<path d="M38.0719 24.4259H33.8118L32.7888 27.4467H30.9844L35.0194 16.2705H36.8941L40.9292 27.4467H39.094L38.0719 24.4259ZM34.253 23.032H37.6298L35.9652 18.1294H35.9186L34.253 23.032Z" fill="white"/>
<path d="M49.6443 23.3733C49.6443 25.9054 48.289 27.5323 46.2438 27.5323C45.7257 27.5594 45.2104 27.44 44.757 27.1879C44.3036 26.9358 43.9304 26.5611 43.68 26.1067H43.6413V30.1426H41.9688V19.2987H43.5877V20.6539H43.6185C43.8803 20.2017 44.2599 19.829 44.7168 19.5753C45.1736 19.3216 45.6907 19.1966 46.213 19.2134C48.281 19.2134 49.6443 20.8482 49.6443 23.3733ZM47.9251 23.3733C47.9251 21.7236 47.0726 20.639 45.7718 20.639C44.4939 20.639 43.6343 21.7464 43.6343 23.3733C43.6343 25.0151 44.4939 26.1146 45.7718 26.1146C47.0726 26.1146 47.9251 25.0379 47.9251 23.3733Z" fill="white"/>
<path d="M58.6111 23.3733C58.6111 25.9054 57.2558 27.5323 55.2106 27.5323C54.6925 27.5594 54.1772 27.44 53.7238 27.1879C53.2704 26.9358 52.8972 26.5611 52.6468 26.1067H52.6081V30.1426H50.9355V19.2987H52.5545V20.6539H52.5852C52.8471 20.2017 53.2267 19.829 53.6835 19.5753C54.1404 19.3216 54.6575 19.1966 55.1798 19.2134C57.2479 19.2134 58.6111 20.8482 58.6111 23.3733ZM56.8919 23.3733C56.8919 21.7236 56.0394 20.639 54.7386 20.639C53.4607 20.639 52.6011 21.7464 52.6011 23.3733C52.6011 25.0151 53.4607 26.1146 54.7386 26.1146C56.0394 26.1146 56.8919 25.0379 56.8919 23.3733Z" fill="white"/>
<path d="M64.5383 24.3326C64.6622 25.4409 65.7389 26.1686 67.2102 26.1686C68.62 26.1686 69.6342 25.4408 69.6342 24.4415C69.6342 23.574 69.0225 23.0546 67.5741 22.6986L66.1256 22.3497C64.0734 21.854 63.1206 20.8942 63.1206 19.3368C63.1206 17.4085 64.8011 16.084 67.1873 16.084C69.5489 16.084 71.1679 17.4085 71.2224 19.3368H69.534C69.4329 18.2215 68.5109 17.5482 67.1636 17.5482C65.8162 17.5482 64.8942 18.2294 64.8942 19.2208C64.8942 20.0109 65.4831 20.4759 66.9236 20.8318L68.155 21.1342C70.448 21.6764 71.4008 22.5976 71.4008 24.2323C71.4008 26.3232 69.7353 27.6328 67.0862 27.6328C64.6077 27.6328 62.9343 26.354 62.8262 24.3325L64.5383 24.3326Z" fill="white"/>
<path d="M75.0098 17.3691V19.2975H76.5593V20.622H75.0098V25.1141C75.0098 25.8119 75.32 26.1371 76.0012 26.1371C76.1851 26.1339 76.3688 26.121 76.5514 26.0984V27.415C76.2451 27.4722 75.9338 27.4981 75.6224 27.4924C73.9727 27.4924 73.3293 26.8727 73.3293 25.2925V20.622H72.1445V19.2975H73.3293V17.3691H75.0098Z" fill="white"/>
<path d="M77.457 23.3721C77.457 20.8083 78.967 19.1973 81.3216 19.1973C83.6841 19.1973 85.187 20.8083 85.187 23.3721C85.187 25.9429 83.692 27.5469 81.3216 27.5469C78.952 27.5469 77.457 25.9429 77.457 23.3721ZM83.4828 23.3721C83.4828 21.6134 82.6768 20.5754 81.3216 20.5754C79.9663 20.5754 79.1612 21.6213 79.1612 23.3721C79.1612 25.1378 79.9663 26.1679 81.3216 26.1679C82.6768 26.1679 83.4828 25.1378 83.4828 23.3721Z" fill="white"/>
<path d="M86.5664 19.2986H88.1616V20.6855H88.2003C88.3083 20.2523 88.562 19.8695 88.9189 19.6014C89.2759 19.3333 89.7142 19.1963 90.1603 19.2133C90.353 19.2127 90.5453 19.2336 90.7333 19.2757V20.8402C90.49 20.7658 90.2362 20.7317 89.9818 20.7391C89.7389 20.7293 89.4966 20.7721 89.2718 20.8647C89.0469 20.9573 88.8447 21.0975 88.6792 21.2756C88.5136 21.4537 88.3885 21.6655 88.3125 21.8965C88.2365 22.1275 88.2114 22.3722 88.239 22.6138V27.4469H86.5664L86.5664 19.2986Z" fill="white"/>
<path d="M98.444 25.0525C98.219 26.5317 96.7785 27.5469 94.9354 27.5469C92.565 27.5469 91.0938 25.9587 91.0938 23.4107C91.0938 20.8549 92.5729 19.1973 94.8651 19.1973C97.1195 19.1973 98.5372 20.7459 98.5372 23.2165V23.7896H92.7821V23.8906C92.7556 24.1905 92.7931 24.4926 92.8923 24.7769C92.9914 25.0611 93.1499 25.321 93.3573 25.5393C93.5646 25.7576 93.816 25.9293 94.0947 26.043C94.3735 26.1566 94.6733 26.2097 94.9741 26.1986C95.3694 26.2357 95.766 26.1441 96.1051 25.9376C96.4441 25.7311 96.7074 25.4207 96.8559 25.0525L98.444 25.0525ZM92.79 22.6206H96.8638C96.8788 22.351 96.8379 22.0811 96.7437 21.8281C96.6495 21.575 96.504 21.3441 96.3163 21.1499C96.1286 20.9557 95.9029 20.8024 95.6531 20.6996C95.4034 20.5968 95.1351 20.5467 94.8651 20.5525C94.5928 20.5509 94.3228 20.6032 94.0707 20.7065C93.8187 20.8098 93.5896 20.9619 93.3967 21.1542C93.2038 21.3465 93.0508 21.5751 92.9467 21.8267C92.8426 22.0784 92.7893 22.3482 92.79 22.6206Z" fill="white"/>
<path d="M34.0413 7.85766C34.392 7.83249 34.7438 7.88547 35.0715 8.01276C35.3992 8.14005 35.6946 8.33848 35.9363 8.59374C36.178 8.849 36.3601 9.15473 36.4694 9.48888C36.5786 9.82302 36.6124 10.1772 36.5682 10.526C36.5682 12.2416 35.6409 13.2278 34.0413 13.2278H32.1016V7.85766H34.0413ZM32.9356 12.4684H33.9481C34.1987 12.4833 34.4495 12.4423 34.6821 12.3481C34.9148 12.2539 35.1236 12.1091 35.2932 11.9241C35.4629 11.7391 35.5891 11.5186 35.6628 11.2786C35.7365 11.0387 35.7557 10.7853 35.7191 10.537C35.7531 10.2896 35.7319 10.0378 35.6571 9.79961C35.5823 9.56142 35.4557 9.34271 35.2864 9.15918C35.1172 8.97564 34.9094 8.83181 34.678 8.738C34.4467 8.64419 34.1974 8.60271 33.9481 8.61655H32.9356V12.4684Z" fill="white"/>
<path d="M37.509 11.2004C37.4836 10.9341 37.514 10.6654 37.5985 10.4115C37.6829 10.1576 37.8195 9.92423 37.9995 9.72624C38.1794 9.52826 38.3988 9.37007 38.6434 9.26182C38.8881 9.15357 39.1527 9.09766 39.4202 9.09766C39.6878 9.09766 39.9524 9.15357 40.197 9.26182C40.4417 9.37007 40.661 9.52826 40.841 9.72624C41.0209 9.92423 41.1575 10.1576 41.242 10.4115C41.3264 10.6654 41.3569 10.9341 41.3314 11.2004C41.3574 11.467 41.3273 11.7361 41.243 11.9904C41.1588 12.2446 41.0223 12.4785 40.8423 12.6768C40.6623 12.8752 40.4428 13.0337 40.1979 13.1422C39.953 13.2507 39.6881 13.3067 39.4202 13.3067C39.1524 13.3067 38.8875 13.2507 38.6426 13.1422C38.3976 13.0337 38.1781 12.8752 37.9981 12.6768C37.8181 12.4785 37.6816 12.2446 37.5974 11.9904C37.5132 11.7361 37.4831 11.467 37.509 11.2004ZM40.5087 11.2004C40.5087 10.3219 40.1141 9.80821 39.4215 9.80821C38.7263 9.80821 38.3352 10.3219 38.3352 11.2004C38.3352 12.0859 38.7264 12.5957 39.4215 12.5957C40.1141 12.5957 40.5087 12.0824 40.5087 11.2004Z" fill="white"/>
<path d="M46.4137 13.2284H45.584L44.7464 10.2436H44.6831L43.849 13.2284H43.0272L41.9102 9.17578H42.7214L43.4474 12.2682H43.5071L44.3403 9.17578H45.1076L45.9408 12.2682H46.0041L46.7266 9.17578H47.5264L46.4137 13.2284Z" fill="white"/>
<path d="M48.4668 9.17597H49.2367V9.81976H49.2965C49.3979 9.58854 49.5689 9.3947 49.7857 9.26528C50.0024 9.13585 50.2542 9.07728 50.5059 9.09774C50.7031 9.08291 50.9011 9.11265 51.0852 9.18473C51.2693 9.25682 51.4349 9.36941 51.5696 9.51417C51.7043 9.65893 51.8047 9.83215 51.8634 10.021C51.9221 10.2098 51.9375 10.4094 51.9086 10.6051V13.2286H51.1088V10.8059C51.1088 10.1546 50.8258 9.83075 50.2343 9.83075C50.1004 9.82452 49.9667 9.8473 49.8425 9.89755C49.7182 9.9478 49.6063 10.0243 49.5144 10.1219C49.4225 10.2194 49.3528 10.3357 49.31 10.4627C49.2672 10.5897 49.2524 10.7245 49.2666 10.8578V13.2286H48.4668L48.4668 9.17597Z" fill="white"/>
<path d="M53.1836 7.59375H53.9834V13.2284H53.1836V7.59375Z" fill="white"/>
<path d="M55.095 11.2005C55.0695 10.9341 55.1 10.6654 55.1845 10.4115C55.2689 10.1577 55.4055 9.92424 55.5855 9.72625C55.7655 9.52826 55.9848 9.37007 56.2295 9.26182C56.4742 9.15357 56.7388 9.09766 57.0064 9.09766C57.2739 9.09766 57.5385 9.15357 57.7832 9.26182C58.0279 9.37007 58.2472 9.52826 58.4272 9.72625C58.6072 9.92424 58.7438 10.1577 58.8283 10.4115C58.9127 10.6654 58.9432 10.9341 58.9178 11.2005C58.9437 11.4671 58.9136 11.7362 58.8293 11.9904C58.745 12.2447 58.6085 12.4785 58.4285 12.6769C58.2485 12.8753 58.029 13.0338 57.7841 13.1423C57.5391 13.2507 57.2742 13.3068 57.0064 13.3068C56.7385 13.3068 56.4736 13.2507 56.2287 13.1423C55.9837 13.0338 55.7642 12.8753 55.5842 12.6769C55.4042 12.4785 55.2677 12.2447 55.1834 11.9904C55.0992 11.7362 55.069 11.4671 55.095 11.2005ZM58.0947 11.2005C58.0947 10.322 57.7 9.80829 57.0075 9.80829C56.3122 9.80829 55.9212 10.322 55.9212 11.2005C55.9212 12.086 56.3123 12.5957 57.0075 12.5957C57.7 12.5957 58.0947 12.0825 58.0947 11.2005Z" fill="white"/>
<path d="M59.7598 12.0824C59.7598 11.3529 60.3029 10.9324 61.2671 10.8726L62.3648 10.8093V10.4595C62.3648 10.0315 62.0818 9.78979 61.5352 9.78979C61.0887 9.78979 60.7793 9.95371 60.6905 10.2402H59.9162C59.9979 9.54414 60.6527 9.09766 61.5721 9.09766C62.5881 9.09766 63.1611 9.60346 63.1611 10.4595V13.2285H62.3912V12.659H62.3279C62.1995 12.8633 62.0191 13.0298 61.8053 13.1416C61.5914 13.2534 61.3517 13.3064 61.1106 13.2953C60.9405 13.313 60.7686 13.2948 60.6059 13.242C60.4432 13.1892 60.2934 13.1028 60.1661 12.9886C60.0388 12.8743 59.9369 12.7346 59.8669 12.5785C59.7969 12.4225 59.7604 12.2535 59.7598 12.0824ZM62.3648 11.7361V11.3973L61.3752 11.4606C60.8171 11.4979 60.564 11.6878 60.564 12.0451C60.564 12.4098 60.8804 12.6221 61.3155 12.6221C61.4429 12.635 61.5717 12.6221 61.6941 12.5842C61.8165 12.5463 61.9301 12.4842 62.028 12.4016C62.1259 12.3189 62.2061 12.2174 62.264 12.1031C62.3219 11.9888 62.3562 11.864 62.3648 11.7361Z" fill="white"/>
<path d="M64.2109 11.2004C64.2109 9.91979 64.8692 9.10856 65.8932 9.10856C66.1464 9.09689 66.3978 9.15755 66.6179 9.28346C66.8379 9.40936 67.0176 9.59531 67.1359 9.81956H67.1957V7.59375H67.9955V13.2284H67.2291V12.5881H67.1658C67.0384 12.8109 66.8524 12.9945 66.6281 13.1191C66.4038 13.2438 66.1496 13.3047 65.8932 13.2952C64.8622 13.2952 64.2109 12.484 64.2109 11.2004ZM65.0371 11.2004C65.0371 12.0599 65.4423 12.5772 66.12 12.5772C66.7941 12.5772 67.2107 12.0525 67.2107 11.2039C67.2107 10.3592 66.7897 9.82706 66.12 9.82706C65.4467 9.82706 65.0371 10.3478 65.0371 11.2004Z" fill="white"/>
<path d="M71.3059 11.2004C71.2804 10.9341 71.3109 10.6654 71.3954 10.4115C71.4798 10.1576 71.6164 9.92423 71.7963 9.72624C71.9763 9.52826 72.1956 9.37007 72.4403 9.26182C72.685 9.15357 72.9496 9.09766 73.2171 9.09766C73.4846 9.09766 73.7492 9.15357 73.9939 9.26182C74.2386 9.37007 74.4579 9.52826 74.6378 9.72624C74.8178 9.92423 74.9544 10.1576 75.0388 10.4115C75.1233 10.6654 75.1538 10.9341 75.1283 11.2004C75.1542 11.467 75.1241 11.7361 75.0399 11.9904C74.9557 12.2446 74.8192 12.4785 74.6392 12.6768C74.4592 12.8752 74.2397 13.0337 73.9948 13.1422C73.7499 13.2507 73.485 13.3067 73.2171 13.3067C72.9492 13.3067 72.6843 13.2507 72.4394 13.1422C72.1945 13.0337 71.975 12.8752 71.795 12.6768C71.615 12.4785 71.4785 12.2446 71.3943 11.9904C71.3101 11.7361 71.28 11.467 71.3059 11.2004ZM74.3056 11.2004C74.3056 10.3219 73.911 9.80821 73.2184 9.80821C72.5232 9.80821 72.1321 10.3219 72.1321 11.2004C72.1321 12.0859 72.5232 12.5957 73.2184 12.5957C73.911 12.5957 74.3056 12.0824 74.3056 11.2004Z" fill="white"/>
<path d="M76.2012 9.17597H76.9711V9.81976H77.0309C77.1323 9.58854 77.3033 9.3947 77.52 9.26528C77.7368 9.13585 77.9886 9.07728 78.2402 9.09774C78.4374 9.08291 78.6354 9.11265 78.8196 9.18473C79.0037 9.25682 79.1693 9.36941 79.304 9.51417C79.4387 9.65893 79.5391 9.83215 79.5978 10.021C79.6565 10.2098 79.6719 10.4094 79.643 10.6051V13.2286H78.8432V10.8059C78.8432 10.1546 78.5602 9.83075 77.9687 9.83075C77.8348 9.82452 77.7011 9.8473 77.5769 9.89755C77.4526 9.9478 77.3407 10.0243 77.2488 10.1219C77.1569 10.2194 77.0871 10.3357 77.0444 10.4627C77.0016 10.5897 76.9868 10.7245 77.001 10.8578V13.2286H76.2012V9.17597Z" fill="white"/>
<path d="M84.1628 8.16699V9.19443H85.0408V9.86812H84.1628V11.952C84.1628 12.3765 84.3377 12.5624 84.7358 12.5624C84.8378 12.5621 84.9396 12.5559 85.0408 12.5439V13.2102C84.8972 13.2358 84.7517 13.2495 84.6058 13.251C83.7163 13.251 83.3621 12.9381 83.3621 12.1568V9.86808H82.7188V9.1944H83.3621V8.16699H84.1628Z" fill="white"/>
<path d="M86.1328 7.59375H86.9256V9.82705H86.9889C87.0952 9.59367 87.2709 9.39873 87.492 9.26882C87.7131 9.13891 87.9689 9.08033 88.2246 9.10108C88.4207 9.0904 88.6168 9.12315 88.7989 9.19699C88.9809 9.27083 89.1444 9.38394 89.2778 9.52824C89.4111 9.67254 89.5109 9.84449 89.5701 10.0318C89.6293 10.2191 89.6464 10.4172 89.6203 10.6119V13.2284H88.8197V10.8092C88.8197 10.1619 88.5182 9.83408 87.9531 9.83408C87.8156 9.8228 87.6773 9.8417 87.5479 9.88945C87.4185 9.9372 87.3011 10.0126 87.2039 10.1105C87.1067 10.2084 87.0321 10.3263 86.9852 10.456C86.9384 10.5857 86.9204 10.7241 86.9327 10.8615V13.2284H86.1328L86.1328 7.59375Z" fill="white"/>
<path d="M94.2821 12.1343C94.1735 12.5047 93.938 12.8251 93.617 13.0394C93.296 13.2538 92.9098 13.3484 92.5261 13.3068C92.2591 13.3138 91.9937 13.2627 91.7485 13.1569C91.5032 13.0512 91.2839 12.8933 91.1058 12.6943C90.9277 12.4952 90.795 12.2598 90.717 12.0044C90.639 11.749 90.6175 11.4796 90.654 11.215C90.6184 10.9496 90.6403 10.6797 90.7182 10.4235C90.796 10.1673 90.928 9.93077 91.1052 9.73001C91.2823 9.52924 91.5006 9.36889 91.7451 9.2598C91.9897 9.15071 92.2548 9.09544 92.5225 9.09772C93.6502 9.09772 94.3305 9.86812 94.3305 11.1407V11.4198H91.4687V11.4646C91.4562 11.6133 91.4749 11.763 91.5236 11.9041C91.5723 12.0452 91.65 12.1745 91.7516 12.2838C91.8532 12.3932 91.9766 12.48 92.1137 12.5389C92.2509 12.5977 92.3988 12.6273 92.548 12.6256C92.7394 12.6486 92.9332 12.6141 93.1049 12.5267C93.2766 12.4392 93.4183 12.3026 93.5122 12.1343L94.2821 12.1343ZM91.4687 10.8283H93.5157C93.5258 10.6923 93.5073 10.5557 93.4614 10.4272C93.4156 10.2988 93.3433 10.1813 93.2494 10.0825C93.1555 9.98359 93.0419 9.90546 92.9159 9.8531C92.79 9.80075 92.6545 9.77531 92.5181 9.77844C92.3798 9.7767 92.2425 9.80267 92.1144 9.85482C91.9863 9.90697 91.8699 9.98425 91.7721 10.0821C91.6743 10.1799 91.597 10.2964 91.545 10.4245C91.4929 10.5527 91.4669 10.69 91.4687 10.8283Z" fill="white"/>
</svg>
