<svg width="122" height="36" viewBox="0 0 122 36" fill="none" xmlns="http://www.w3.org/2000/svg">
<rect x="0.45" y="0.45" width="120.601" height="35.1" rx="4.05" fill="black"/>
<rect x="0.45" y="0.45" width="120.601" height="35.1" rx="4.05" stroke="#A2A2A1" stroke-width="0.9"/>
<path d="M96.2411 27.0013H97.9204V15.7496H96.2411V27.0013ZM111.367 19.803L109.442 24.6809H109.385L107.387 19.803H105.578L108.575 26.6206L106.866 30.4131H108.617L113.235 19.8034L111.367 19.803ZM101.843 25.7232C101.294 25.7232 100.526 25.4479 100.526 24.7677C100.526 23.8993 101.482 23.5664 102.306 23.5664C103.044 23.5664 103.393 23.7253 103.841 23.9426C103.71 24.9849 102.813 25.7232 101.843 25.7232ZM102.046 19.5569C100.83 19.5569 99.5713 20.0927 99.0502 21.2796L100.541 21.9018C100.859 21.2796 101.452 21.0771 102.075 21.0771C102.944 21.0771 103.826 21.5978 103.841 22.5245V22.6401C103.537 22.4664 102.885 22.206 102.09 22.206C100.482 22.206 98.8469 23.0887 98.8469 24.7389C98.8469 26.2443 100.164 27.2142 101.64 27.2142C102.769 27.2142 103.393 26.7075 103.782 26.1138H103.841V26.9828H105.463V22.6689C105.463 20.6714 103.97 19.5569 102.046 19.5569ZM91.6674 21.1727H89.2789V17.3162H91.6674C92.923 17.3162 93.6357 18.3554 93.6357 19.2444C93.6357 20.1163 92.9229 21.1727 91.6674 21.1727ZM91.6242 15.7499H87.6003V27.0015H89.2789V22.739H91.6243C93.4855 22.739 95.3152 21.3918 95.3152 19.2448C95.3152 17.0982 93.4854 15.7499 91.6242 15.7499ZM69.6819 25.7251C68.5217 25.7251 67.5507 24.7534 67.5507 23.42C67.5507 22.071 68.5217 21.0856 69.6819 21.0856C70.8273 21.0856 71.7262 22.0711 71.7262 23.42C71.7262 24.7534 70.8273 25.7251 69.6819 25.7251ZM71.6102 20.4329H71.5521C71.1753 19.9835 70.45 19.5775 69.537 19.5775C67.6228 19.5775 65.8685 21.2597 65.8685 23.42C65.8685 25.5655 67.6228 27.2329 69.537 27.2329C70.45 27.2329 71.1753 26.8269 71.5521 26.3632H71.6102V26.9137C71.6102 28.3787 70.8273 29.1612 69.5659 29.1612C68.5368 29.1612 67.8988 28.4219 67.6376 27.7985L66.1734 28.4074C66.5935 29.4219 67.7097 30.6693 69.5659 30.6693C71.5381 30.6693 73.2055 29.5091 73.2055 26.6816V19.8094H71.6102L71.6102 20.4329ZM74.3657 27.0009H76.0468V15.7493H74.3657V27.0009ZM78.5264 23.2892C78.4831 21.8102 79.6724 21.0564 80.5274 21.0564C81.1947 21.0564 81.7596 21.3901 81.9488 21.8682L78.5264 23.2892ZM83.7459 22.0131C83.4271 21.1581 82.4557 19.5775 80.4694 19.5775C78.4972 19.5775 76.8589 21.1289 76.8589 23.4053C76.8589 25.5512 78.4831 27.233 80.6575 27.233C82.4118 27.233 83.4271 26.1604 83.8479 25.5367L82.5429 24.6666C82.1077 25.3047 81.5136 25.7252 80.6575 25.7252C79.8026 25.7252 79.1933 25.3336 78.8024 24.5651L83.9199 22.4484L83.7459 22.0131ZM42.9696 20.752V22.3759H46.8553C46.7393 23.2893 46.4348 23.9561 45.9707 24.4202C45.4051 24.9855 44.5206 25.6091 42.9695 25.6091C40.5771 25.6091 38.7069 23.6809 38.7069 21.2885C38.7069 18.8962 40.5771 16.9676 42.9695 16.9676C44.26 16.9676 45.2022 17.4752 45.8982 18.1277L47.044 16.982C46.0723 16.0542 44.7821 15.3438 42.9695 15.3438C39.6923 15.3438 36.9375 18.0116 36.9375 21.2885C36.9375 24.5651 39.6923 27.233 42.9695 27.233C44.7382 27.233 46.0723 26.653 47.1161 25.5656C48.1891 24.4926 48.5227 22.9848 48.5227 21.7667C48.5227 21.3901 48.4934 21.0421 48.4355 20.752H42.9696ZM52.9408 25.7251C51.7806 25.7251 50.7801 24.7682 50.7801 23.4053C50.7801 22.0278 51.7806 21.0857 52.9408 21.0857C54.1005 21.0857 55.101 22.0278 55.101 23.4053C55.101 24.7682 54.1005 25.7251 52.9408 25.7251ZM52.9408 19.5775C50.8233 19.5775 49.0982 21.1869 49.0982 23.4053C49.0982 25.6091 50.8233 27.233 52.9408 27.233C55.0574 27.233 56.7829 25.6091 56.7829 23.4053C56.7829 21.1869 55.0574 19.5775 52.9408 19.5775ZM61.3223 25.7251C60.1629 25.7251 59.1621 24.7682 59.1621 23.4053C59.1621 22.0278 60.163 21.0857 61.3223 21.0857C62.4825 21.0857 63.4826 22.0278 63.4826 23.4053C63.4826 24.7682 62.4825 25.7251 61.3223 25.7251ZM61.3223 19.5775C59.2056 19.5775 57.4805 21.1869 57.4805 23.4053C57.4805 25.6091 59.2056 27.233 61.3223 27.233C63.4398 27.233 65.1649 25.6091 65.1649 23.4053C65.1649 21.1869 63.4398 19.5775 61.3223 19.5775Z" fill="white"/>
<path d="M42.6561 8.8029H40.0307V9.4526H41.998C41.9446 9.98278 41.7336 10.399 41.3779 10.7014C41.0221 11.0038 40.5679 11.1556 40.0307 11.1556C39.4415 11.1556 38.9422 10.9503 38.5331 10.5425C38.1323 10.1263 37.9284 9.61155 37.9284 8.99142C37.9284 8.37134 38.1323 7.85661 38.5331 7.4404C38.9423 7.03262 39.4415 6.82868 40.0307 6.82868C40.3331 6.82868 40.6213 6.88071 40.8857 6.99464C41.1501 7.10849 41.3624 7.26742 41.5283 7.47136L42.0276 6.97214C41.8011 6.71475 41.5143 6.51792 41.1584 6.37447C40.8027 6.23101 40.4314 6.16216 40.0306 6.16216C39.2446 6.16216 38.5781 6.43494 38.0338 6.97918C37.4896 7.52475 37.2168 8.19696 37.2168 8.99144C37.2168 9.78592 37.4896 10.4596 38.0338 11.0038C38.578 11.548 39.2446 11.8209 40.0306 11.8209C40.8561 11.8209 41.5142 11.5564 42.0205 11.0192C42.4662 10.5721 42.694 9.96743 42.694 9.21088C42.694 9.0829 42.6786 8.94636 42.6561 8.8029ZM43.6732 6.28298V11.6998H46.8357V11.0346H44.3693V9.31628H46.5939V8.66658H44.3693V6.94958H46.8357V6.28296L43.6732 6.28298ZM51.2704 6.9496V6.28298H47.5481V6.9496H49.0612V11.6998H49.7573V6.9496H51.2704ZM54.6403 6.28298H53.9443V11.6998H54.6403V6.28298ZM59.2348 6.9496V6.28298H55.5126V6.9496H57.0256V11.6998H57.7217V6.9496H59.2348ZM66.2589 6.98757C65.7217 6.4349 65.0636 6.16211 64.2775 6.16211C63.49 6.16211 62.832 6.43489 62.2948 6.97913C61.7575 7.51634 61.4932 8.18989 61.4932 8.99139C61.4932 9.79289 61.7576 10.4665 62.2948 11.0038C62.832 11.5479 63.49 11.8208 64.2775 11.8208C65.0565 11.8208 65.7217 11.5479 66.2589 11.0038C66.7961 10.4666 67.0604 9.79296 67.0604 8.99139C67.0604 8.19691 66.7961 7.52467 66.2589 6.98757ZM62.794 7.44035C63.1947 7.03257 63.6869 6.82864 64.2775 6.82864C64.8667 6.82864 65.3589 7.03258 65.7527 7.44035C66.1534 7.84112 66.3503 8.36416 66.3503 8.99138C66.3503 9.62001 66.1534 10.1417 65.7527 10.5425C65.3589 10.9503 64.8667 11.1555 64.2775 11.1555C63.6869 11.1555 63.1947 10.9502 62.794 10.5425C62.4016 10.1332 62.2048 9.62001 62.2048 8.99138C62.2048 8.36418 62.4016 7.84954 62.794 7.44035ZM68.7142 8.32629L68.6847 7.28139H68.7142L71.4676 11.6998H72.1946V6.28292H71.4985V9.45254L71.528 10.4974H71.4985L68.8661 6.28292H68.0181V11.6998H68.7142V8.32629Z" fill="white" stroke="white" stroke-width="0.179997" stroke-miterlimit="10"/>
<path d="M18.6474 17.4816L9.06641 27.6512C9.06677 27.6533 9.06749 27.655 9.06782 27.6572C9.36167 28.7615 10.3703 29.5746 11.5674 29.5746C12.0459 29.5746 12.4952 29.4452 12.8804 29.2181L12.911 29.2002L23.6963 22.9767L18.6474 17.4816Z" fill="#EB3131"/>
<path d="M28.3392 15.7505L28.33 15.7443L23.6737 13.0449L18.4277 17.713L23.6919 22.9765L28.3236 20.304C29.1357 19.8656 29.6869 19.0095 29.6869 18.0223C29.6869 17.0422 29.1432 16.1904 28.3392 15.7505Z" fill="#F6B60B"/>
<path d="M9.06443 8.34961C9.00684 8.56201 8.97656 8.78448 8.97656 9.01551V26.9861C8.97656 27.2167 9.00648 27.44 9.0648 27.6516L18.9766 17.7419L9.06443 8.34961Z" fill="#5778C5"/>
<path d="M18.717 18.0007L23.6765 13.0427L12.9034 6.79665C12.5118 6.56212 12.0548 6.42676 11.5658 6.42676C10.3687 6.42676 9.35871 7.24135 9.06481 8.34694C9.06445 8.34802 9.06445 8.34876 9.06445 8.34971L18.717 18.0007Z" fill="#3BAD49"/>
</svg>
